<?xml version="1.0" standalone="no"?>
<!DOCTYPE svg PUBLIC "-//W3C//DTD SVG 20010904//EN"
 "http://www.w3.org/TR/2001/REC-SVG-20010904/DTD/svg10.dtd">
<svg version="1.0" xmlns="http://www.w3.org/2000/svg"
 width="900.000000pt" height="285.000000pt" viewBox="0 0 900.000000 285.000000"
 preserveAspectRatio="xMidYMid meet">
<metadata>
Created by potrace 1.10, written by Peter Selinger 2001-2011
</metadata>
<g transform="translate(0.000000,285.000000) scale(0.100000,-0.100000)"
fill="#000000" stroke="none">
<path d="M6186 2292 c-86 -71 -280 -235 -291 -248 -5 -6 -73 -65 -150 -131
-77 -66 -193 -173 -259 -238 -99 -98 -120 -115 -128 -102 -15 28 -41 20 -111
-33 -36 -27 -71 -50 -76 -50 -6 0 -14 -6 -18 -12 -15 -24 -108 -89 -111 -78
-3 9 81 129 185 264 67 87 182 203 300 303 85 73 113 102 111 117 -2 12 -10
22 -19 24 -16 3 -129 -80 -208 -153 -92 -85 -118 -110 -191 -179 -186 -176
-238 -214 -255 -186 -15 24 -141 -60 -252 -166 -63 -61 -74 -76 -71 -100 4
-42 35 -42 94 0 27 19 74 52 104 73 30 20 60 42 65 48 6 7 37 33 70 58 33 25
82 66 110 91 27 24 51 43 53 41 3 -3 -15 -38 -31 -59 -4 -6 -32 -45 -62 -86
-63 -87 -59 -82 -108 -143 -40 -49 -44 -87 -9 -87 19 0 197 131 236 173 35 38
44 34 48 -20 4 -67 24 -66 89 4 135 145 279 286 285 280 3 -3 0 -13 -7 -21
-20 -22 -25 -28 -129 -166 -52 -68 -114 -144 -137 -168 -24 -24 -43 -48 -43
-53 0 -19 -29 -8 -32 13 -5 32 -21 32 -41 -1 -31 -53 -18 -111 25 -111 28 0
143 126 273 300 64 85 158 200 208 254 96 103 344 338 535 507 31 27 40 41 35
57 -9 35 -27 32 -87 -16z m-1276 -787 c0 -8 -7 -15 -15 -15 -8 0 -15 -4 -15
-9 0 -10 -38 -34 -72 -47 -10 -3 -18 -10 -18 -15 0 -5 -8 -9 -17 -9 -19 0 64
79 83 80 6 0 17 7 24 15 7 8 16 15 21 15 5 0 9 -7 9 -15z"/>
<path d="M6418 2207 c-27 -24 -48 -47 -48 -51 0 -5 -16 -25 -35 -45 -60 -62
-176 -198 -273 -320 -51 -64 -113 -141 -137 -171 -82 -103 -177 -192 -282
-264 -59 -40 -70 -86 -21 -86 21 0 49 21 160 121 35 31 84 74 110 95 26 22 52
53 58 70 11 32 20 44 135 178 34 39 70 83 82 98 30 40 195 219 286 311 42 44
77 83 77 87 0 10 -26 20 -48 20 -9 -1 -38 -20 -64 -43z"/>
<path d="M4389 2188 c-8 -13 -20 -35 -26 -50 -11 -25 -132 -170 -179 -213 -84
-78 -212 -193 -233 -210 -14 -11 -95 -87 -179 -170 -126 -124 -152 -154 -150
-175 5 -38 40 -38 80 2 18 18 67 60 108 93 76 61 141 124 166 159 12 18 17 19
49 7 28 -10 46 -10 89 0 91 20 97 8 29 -59 -32 -31 -85 -87 -119 -123 -33 -36
-68 -68 -77 -72 -9 -3 -29 -25 -44 -49 -15 -24 -40 -56 -55 -71 -28 -29 -36
-61 -18 -72 17 -10 49 5 63 30 6 13 41 54 77 92 53 56 166 183 215 240 5 6 32
34 59 62 41 42 57 51 95 56 25 4 60 13 78 21 17 8 35 14 40 14 13 0 43 34 43
48 0 18 -31 14 -75 -8 -64 -33 -63 -8 3 57 51 49 100 104 222 250 27 31 40 59
40 82 0 55 -118 51 -213 -6 -32 -19 -61 -32 -64 -29 -4 3 2 21 12 39 9 18 16
42 14 52 -6 28 -34 30 -50 3z m231 -82 c0 -17 -157 -201 -276 -325 l-81 -84
-79 -13 c-99 -16 -144 -17 -144 -3 0 25 262 285 339 336 126 85 241 127 241
89z"/>
<path d="M3805 2092 c-38 -20 -83 -42 -98 -50 -20 -10 -43 -12 -78 -7 -61 8
-169 -26 -169 -54 0 -30 16 -44 36 -33 72 40 106 48 138 36 19 -7 21 -30 3
-41 -7 -4 -31 -30 -52 -58 -22 -27 -42 -52 -45 -55 -3 -3 -30 -36 -60 -75 -30
-38 -57 -72 -60 -75 -3 -3 -16 -22 -30 -42 -25 -38 -43 -47 -55 -28 -15 24
-53 7 -111 -48 -67 -63 -84 -88 -84 -126 0 -31 38 -60 66 -49 51 18 120 83
197 181 28 37 54 69 57 72 3 3 30 37 60 75 30 39 57 72 60 75 3 3 21 25 39 50
57 76 148 156 220 194 74 39 89 57 65 81 -20 19 -16 20 -99 -23z m-526 -586
c-52 -50 -64 -58 -67 -42 -4 20 69 102 103 116 41 16 26 -15 -36 -74z"/>
<path d="M2515 2111 c-11 -5 -47 -19 -80 -31 -33 -13 -77 -34 -97 -47 -40 -24
-68 -30 -68 -13 0 20 -32 9 -57 -20 -13 -16 -29 -30 -35 -30 -5 0 -33 -20 -61
-45 -29 -25 -59 -45 -68 -45 -27 0 -31 -13 -9 -30 21 -16 21 -16 -22 -47 -64
-46 -177 -160 -320 -323 -98 -110 -128 -152 -128 -172 0 -22 5 -28 22 -28 23
0 53 30 410 405 162 170 231 233 288 264 200 107 270 132 270 99 0 -37 -271
-315 -345 -355 -12 -7 -59 -15 -104 -19 -68 -6 -81 -10 -79 -23 2 -12 17 -17
56 -19 28 -2 52 -6 52 -10 0 -4 -21 -25 -47 -47 -59 -50 -121 -113 -140 -142
-12 -18 -12 -25 -1 -42 7 -12 22 -21 33 -21 19 0 78 41 120 84 18 18 18 19 0
32 -17 13 -14 18 51 80 40 39 91 77 122 90 33 15 52 30 52 40 0 10 53 69 118
133 69 68 133 142 156 179 36 60 37 64 22 87 -13 20 -25 25 -54 24 -20 0 -46
-4 -57 -8z"/>
<path d="M3146 2093 c-61 -16 -266 -197 -371 -328 -59 -73 -77 -95 -111 -134
-128 -150 -156 -211 -96 -211 23 0 39 17 107 110 116 160 211 279 258 326 65
62 180 160 204 173 65 34 9 -78 -135 -264 -84 -109 -114 -134 -138 -114 -19
15 -44 -5 -44 -36 0 -54 52 -57 110 -5 18 16 37 30 40 30 4 0 32 35 63 78 32
42 61 82 66 87 56 70 131 204 131 234 0 21 -36 61 -53 60 -7 -1 -21 -4 -31 -6z"/>
<path d="M4784 1983 c-21 -32 -48 -67 -60 -78 -11 -11 -45 -52 -75 -91 -62
-80 -138 -170 -189 -224 -19 -21 -55 -61 -80 -90 -25 -29 -56 -65 -70 -79
-129 -138 -162 -181 -156 -206 4 -14 11 -25 16 -25 6 0 52 41 103 91 51 51
128 119 172 152 44 34 82 64 85 67 35 41 195 144 210 135 11 -7 -13 -33 -110
-121 -209 -187 -240 -217 -246 -236 -6 -19 11 -41 28 -35 4 1 106 99 228 217
165 160 220 219 218 235 -4 30 -44 23 -136 -22 -68 -33 -103 -56 -162 -105
-84 -70 -120 -91 -120 -70 0 4 8 15 18 23 9 9 58 60 108 115 82 89 110 120
166 188 9 12 47 56 83 98 70 82 79 111 34 116 -21 2 -32 -7 -65 -55z"/>
<path d="M6716 1898 c-9 -13 -43 -46 -77 -73 -73 -59 -166 -150 -303 -298
-126 -136 -130 -141 -116 -167 6 -11 15 -20 19 -20 5 0 49 46 97 103 49 56 97
111 107 122 10 11 40 44 65 74 69 80 94 103 104 93 23 -23 -88 -197 -198 -312
-70 -73 -94 -105 -94 -124 0 -31 42 -16 87 30 47 47 64 53 41 13 -23 -41 -73
-85 -116 -104 -47 -21 -54 -42 -17 -51 16 -4 36 1 59 16 80 49 191 217 183
275 -3 23 3 39 29 70 33 41 94 154 94 176 0 17 39 79 72 114 19 20 28 39 26
55 -4 35 -41 39 -62 8z"/>
<path d="M3271 1836 c-17 -18 -22 -32 -17 -50 3 -15 11 -26 17 -26 15 0 53 21
61 34 13 19 9 54 -8 60 -24 9 -29 8 -53 -18z"/>
<path d="M2560 1744 c-15 -39 8 -62 47 -48 22 7 28 16 28 39 0 27 -4 30 -33
33 -27 3 -34 -1 -42 -24z"/>
<path d="M3577 1712 c-10 -10 -17 -31 -17 -45 0 -24 4 -27 33 -27 25 0 37 6
46 24 11 20 10 27 -5 45 -23 26 -36 26 -57 3z"/>
<path d="M6061 1615 c-25 -6 -46 -16 -48 -22 -4 -12 24 -26 37 -18 5 3 11 1
14 -4 6 -9 2 -14 -133 -146 -89 -87 -107 -114 -99 -151 10 -52 104 -43 172 17
44 39 61 79 33 79 -8 0 -24 -11 -36 -24 -24 -26 -98 -63 -107 -53 -11 11 16
44 126 151 131 128 148 150 130 171 -14 17 -27 17 -89 0z"/>
<path d="M6085 1428 c-2 -7 -6 -43 -8 -80 -6 -82 6 -99 47 -67 24 19 26 25 22
79 -2 32 -7 63 -11 69 -9 15 -45 14 -50 -1z"/>
<path d="M3900 1167 c0 -18 21 -37 41 -37 22 0 31 13 23 34 -7 20 -64 22 -64
3z"/>
<path d="M4087 1145 c-23 -28 -24 -35 -12 -45 8 -7 26 -9 40 -6 19 5 25 13 25
35 0 48 -22 55 -53 16z"/>
<path d="M7529 1166 c-2 -2 -65 -7 -139 -10 -195 -9 -489 -44 -557 -67 -18 -5
-99 -14 -180 -19 -82 -5 -166 -12 -188 -15 -65 -9 -226 -35 -285 -46 -53 -10
-177 -29 -329 -50 -41 -5 -79 -13 -85 -17 -6 -3 -58 -12 -116 -18 -251 -28
-302 -35 -328 -46 -31 -12 -106 -22 -317 -43 -82 -8 -208 -21 -280 -30 -71 -9
-218 -20 -325 -25 -139 -6 -207 -14 -238 -25 -67 -26 -48 -40 59 -43 95 -3
438 21 559 39 36 5 115 14 175 19 205 17 310 30 330 40 23 11 119 27 245 40
47 5 112 14 145 20 145 26 314 52 458 70 44 6 86 14 95 19 10 5 49 12 87 15
39 4 87 12 108 17 21 6 100 14 175 19 75 5 180 16 232 25 52 8 131 20 175 25
44 6 107 15 140 21 33 5 148 13 256 18 112 5 205 14 217 20 26 14 29 36 6 45
-18 7 -88 8 -95 2z"/>
</g>
</svg>
